<svg width="1200" height="420" viewBox="0 0 1200 420" fill="none" xmlns="http://www.w3.org/2000/svg">
<defs>
  <linearGradient id="bg" x1="0" y1="0" x2="1200" y2="420" gradientUnits="userSpaceOnUse">
    <stop stop-color="#07111F"/>
    <stop offset="0.55" stop-color="#0B2741"/>
    <stop offset="1" stop-color="#0B4F5C"/>
  </linearGradient>
  <linearGradient id="accent" x1="120" y1="100" x2="900" y2="330" gradientUnits="userSpaceOnUse">
    <stop stop-color="#49D3FF"/>
    <stop offset="1" stop-color="#6FFFD4"/>
  </linearGradient>
  <filter id="glow" x="-50%" y="-50%" width="200%" height="200%">
    <feGaussianBlur stdDeviation="12"/>
  </filter>
</defs>
<rect width="1200" height="420" rx="28" fill="url(#bg)"/>
<g opacity=".13" stroke="#8BE8FF">
  <path d="M0 70H1200M0 140H1200M0 210H1200M0 280H1200M0 350H1200"/>
  <path d="M100 0V420M200 0V420M300 0V420M400 0V420M500 0V420M600 0V420M700 0V420M800 0V420M900 0V420M1000 0V420M1100 0V420"/>
</g>
<circle cx="1010" cy="120" r="120" fill="#32D2FF" opacity=".08"/>
<circle cx="1090" cy="310" r="170" fill="#4FFFD4" opacity=".07"/>
<circle cx="1000" cy="210" r="94" stroke="url(#accent)" stroke-width="2" opacity=".55"/>
<circle cx="1000" cy="210" r="62" stroke="url(#accent)" stroke-width="2" opacity=".8"/>
<path d="M936 229C955 195 973 172 996 154C1017 171 1035 194 1054 229" stroke="url(#accent)" stroke-width="5" stroke-linecap="round"/>
<path d="M949 242H1051" stroke="url(#accent)" stroke-width="5" stroke-linecap="round"/>
<path d="M972 267C987 276 1012 276 1027 267" stroke="url(#accent)" stroke-width="5" stroke-linecap="round"/>
<rect x="84" y="70" width="174" height="34" rx="17" fill="#0E3652" stroke="#2C7895"/>
<text x="171" y="92" text-anchor="middle" fill="#8CEBFF" font-size="15" font-family="Arial, Helvetica, sans-serif" font-weight="700" letter-spacing="2">FEATURED PROJECT</text>
<text x="84" y="180" fill="white" font-size="62" font-family="Arial, Helvetica, sans-serif" font-weight="800">ClimateCatcher</text>
<text x="84" y="226" fill="#B9D8E6" font-size="25" font-family="Arial, Helvetica, sans-serif">IoT Weather Monitoring • Full‑Stack Web Platform</text>
<rect x="84" y="270" width="112" height="40" rx="20" fill="#12344F" stroke="#2A6C88"/>
<text x="140" y="296" text-anchor="middle" fill="#D8F7FF" font-size="16" font-family="Arial, Helvetica, sans-serif" font-weight="700">PHP</text>
<rect x="208" y="270" width="112" height="40" rx="20" fill="#12344F" stroke="#2A6C88"/>
<text x="264" y="296" text-anchor="middle" fill="#D8F7FF" font-size="16" font-family="Arial, Helvetica, sans-serif" font-weight="700">MySQL</text>
<rect x="332" y="270" width="132" height="40" rx="20" fill="#12344F" stroke="#2A6C88"/>
<text x="398" y="296" text-anchor="middle" fill="#D8F7FF" font-size="16" font-family="Arial, Helvetica, sans-serif" font-weight="700">JavaScript</text>
<rect x="476" y="270" width="124" height="40" rx="20" fill="#12344F" stroke="#2A6C88"/>
<text x="538" y="296" text-anchor="middle" fill="#D8F7FF" font-size="16" font-family="Arial, Helvetica, sans-serif" font-weight="700">Chart.js</text>
<text x="84" y="357" fill="#72EBD4" font-size="17" font-family="Arial, Helvetica, sans-serif" font-weight="700" letter-spacing="1.2">SENSORS → API → DATABASE → ANALYTICS</text>
</svg>